<svg width="656.000000" height="195.910156" viewBox="0 0 656 195.91" fill="none" xmlns="http://www.w3.org/2000/svg" xmlns:xlink="http://www.w3.org/1999/xlink">
	<desc>
			Created with Pixso.
	</desc>
	<defs/>
	<rect id="Rectangle 3" width="93.714287" height="50.000000" fill="#FFFFFF" fill-opacity="1.000000"/>
	<rect id="Rectangle 4" x="93.714355" width="93.714287" height="50.000000" fill="#FBE54D" fill-opacity="1.000000"/>
	<rect id="Rectangle 5" x="187.428711" width="93.714287" height="50.000000" fill="#74FADB" fill-opacity="1.000000"/>
	<rect id="Rectangle 6" x="281.142578" width="93.714287" height="50.000000" fill="#68DC42" fill-opacity="1.000000"/>
	<rect id="Rectangle 7" x="374.857422" width="93.714287" height="50.000000" fill="#E83CF2" fill-opacity="1.000000"/>
	<rect id="Rectangle 8" x="468.571289" width="93.714287" height="50.000000" fill="#D52D25" fill-opacity="1.000000"/>
	<rect id="Rectangle 9" x="562.285645" width="93.714287" height="50.000000" fill="#0732B3" fill-opacity="1.000000"/>
	<path id="page not found 404" d="M62.93 117.91L57.24 117.91L57.24 78L80.04 78L80.04 80.86L82.88 80.86L82.88 83.7L85.73 83.7L85.73 97.95L82.88 97.95L82.88 100.82L80.04 100.82L80.04 103.66L62.93 103.66L62.93 117.91ZM92.86 117.91L87.17 117.91L87.17 109.37L90.02 109.37L90.02 100.82L92.86 100.82L92.86 92.26L95.71 92.26L95.71 83.7L98.57 83.7L98.57 78L107.13 78L107.13 83.7L109.97 83.7L109.97 92.26L112.82 92.26L112.82 100.82L115.66 100.82L115.66 109.37L118.53 109.37L118.53 117.91L112.82 117.91L112.82 109.37L92.86 109.37L92.86 117.91ZM145.59 117.91L131.33 117.91L131.33 115.06L128.48 115.06L128.48 112.22L125.64 112.22L125.64 109.37L122.79 109.37L122.79 86.55L125.64 86.55L125.64 83.7L128.48 83.7L128.48 80.86L131.33 80.86L131.33 78L148.44 78L148.44 80.86L151.28 80.86L151.28 83.7L154.15 83.7L154.15 86.55L156.99 86.55L156.99 92.26L151.28 92.26L151.28 89.41L148.44 89.41L148.44 86.55L145.59 86.55L145.59 83.7L134.19 83.7L134.19 86.55L131.33 86.55L131.33 89.41L128.48 89.41L128.48 106.51L131.33 106.51L131.33 109.37L134.19 109.37L134.19 112.22L145.59 112.22L145.59 109.37L148.44 109.37L148.44 106.51L151.28 106.51L151.28 103.66L142.75 103.66L142.75 97.95L156.99 97.95L156.99 117.91L151.28 117.91L151.28 112.22L148.44 112.22L148.44 115.06L145.59 115.06L145.59 117.91ZM191.19 117.91L162.7 117.91L162.7 78L191.19 78L191.19 83.7L168.39 83.7L168.39 93.68L188.35 93.68L188.35 99.39L168.39 99.39L168.39 112.22L191.19 112.22L191.19 117.91ZM213.99 117.91L208.3 117.91L208.3 78L216.84 78L216.84 83.7L219.7 83.7L219.7 89.41L222.55 89.41L222.55 95.1L225.39 95.1L225.39 100.82L228.26 100.82L228.26 106.51L231.1 106.51L231.1 78L236.79 78L236.79 117.91L228.26 117.91L228.26 112.22L225.39 112.22L225.39 106.51L222.55 106.51L222.55 100.82L219.7 100.82L219.7 95.1L216.84 95.1L216.84 89.41L213.99 89.41L213.99 117.91ZM268.17 117.91L251.06 117.91L251.06 115.06L248.21 115.06L248.21 112.22L245.37 112.22L245.37 109.37L242.52 109.37L242.52 86.55L245.37 86.55L245.37 83.7L248.21 83.7L248.21 80.86L251.06 80.86L251.06 78L268.17 78L268.17 80.86L271.01 80.86L271.01 83.7L273.88 83.7L273.88 86.55L276.72 86.55L276.72 109.37L273.88 109.37L273.88 112.22L271.01 112.22L271.01 115.06L268.17 115.06L268.17 117.91ZM296.7 117.91L291.01 117.91L291.01 83.7L279.61 83.7L279.61 78L308.1 78L308.1 83.7L296.7 83.7L296.7 117.91ZM329.44 117.91L323.75 117.91L323.75 78L352.24 78L352.24 83.7L329.44 83.7L329.44 95.1L349.39 95.1L349.39 100.82L329.44 100.82L329.44 117.91ZM380.73 117.91L363.62 117.91L363.62 115.06L360.77 115.06L360.77 112.22L357.93 112.22L357.93 109.37L355.08 109.37L355.08 86.55L357.93 86.55L357.93 83.7L360.77 83.7L360.77 80.86L363.62 80.86L363.62 78L380.73 78L380.73 80.86L383.57 80.86L383.57 83.7L386.44 83.7L386.44 86.55L389.28 86.55L389.28 109.37L386.44 109.37L386.44 112.22L383.57 112.22L383.57 115.06L380.73 115.06L380.73 117.91ZM417.79 117.91L400.68 117.91L400.68 115.06L397.84 115.06L397.84 112.22L394.99 112.22L394.99 78L400.68 78L400.68 109.37L403.53 109.37L403.53 112.22L414.95 112.22L414.95 109.37L417.79 109.37L417.79 78L423.48 78L423.48 112.22L420.64 112.22L420.64 115.06L417.79 115.06L417.79 117.91ZM434.9 117.91L429.21 117.91L429.21 78L437.75 78L437.75 83.7L440.61 83.7L440.61 89.41L443.46 89.41L443.46 95.1L446.3 95.1L446.3 100.82L449.17 100.82L449.17 106.51L452.01 106.51L452.01 78L457.7 78L457.7 117.91L449.17 117.91L449.17 112.22L446.3 112.22L446.3 106.51L443.46 106.51L443.46 100.82L440.61 100.82L440.61 95.1L437.75 95.1L437.75 89.41L434.9 89.41L434.9 117.91ZM486.23 117.91L463.43 117.91L463.43 78L486.23 78L486.23 80.86L489.08 80.86L489.08 83.7L491.92 83.7L491.92 86.55L494.79 86.55L494.79 109.37L491.92 109.37L491.92 112.22L489.08 112.22L489.08 115.06L486.23 115.06L486.23 117.91ZM534.64 117.91L528.93 117.91L528.93 109.37L511.84 109.37L511.84 100.82L514.68 100.82L514.68 95.1L517.53 95.1L517.53 89.41L520.37 89.41L520.37 83.7L523.24 83.7L523.24 78L534.64 78L534.64 105.08L537.48 105.08L537.48 109.37L534.64 109.37L534.64 117.91ZM561.73 117.91L547.46 117.91L547.46 115.06L544.62 115.06L544.62 112.22L541.77 112.22L541.77 83.7L544.62 83.7L544.62 80.86L547.46 80.86L547.46 78L561.73 78L561.73 80.86L564.57 80.86L564.57 83.7L567.42 83.7L567.42 112.22L564.57 112.22L564.57 115.06L561.73 115.06L561.73 117.91ZM595.91 117.91L590.2 117.91L590.2 109.37L573.11 109.37L573.11 100.82L575.95 100.82L575.95 95.1L578.8 95.1L578.8 89.41L581.64 89.41L581.64 83.7L584.51 83.7L584.51 78L595.91 78L595.91 105.08L598.75 105.08L598.75 109.37L595.91 109.37L595.91 117.91ZM62.93 97.95L77.19 97.95L77.19 95.1L80.04 95.1L80.04 86.55L77.19 86.55L77.19 83.7L62.93 83.7L62.93 97.95ZM253.92 112.22L265.32 112.22L265.32 109.37L268.17 109.37L268.17 106.51L271.01 106.51L271.01 89.41L268.17 89.41L268.17 86.55L265.32 86.55L265.32 83.7L253.92 83.7L253.92 86.55L251.06 86.55L251.06 89.41L248.21 89.41L248.21 106.51L251.06 106.51L251.06 109.37L253.92 109.37L253.92 112.22ZM366.48 112.22L377.88 112.22L377.88 109.37L380.73 109.37L380.73 106.51L383.57 106.51L383.57 89.41L380.73 89.41L380.73 86.55L377.88 86.55L377.88 83.7L366.48 83.7L366.48 86.55L363.62 86.55L363.62 89.41L360.77 89.41L360.77 106.51L363.62 106.51L363.62 109.37L366.48 109.37L366.48 112.22ZM469.12 112.22L483.39 112.22L483.39 109.37L486.23 109.37L486.23 106.51L489.08 106.51L489.08 89.41L486.23 89.41L486.23 86.55L483.39 86.55L483.39 83.7L469.12 83.7L469.12 112.22ZM517.53 105.08L528.93 105.08L528.93 83.7L526.08 83.7L526.08 89.41L523.24 89.41L523.24 95.1L520.37 95.1L520.37 100.82L517.53 100.82L517.53 105.08ZM550.31 112.22L558.86 112.22L558.86 109.37L561.73 109.37L561.73 86.55L558.86 86.55L558.86 83.7L550.31 83.7L550.31 86.55L547.46 86.55L547.46 109.37L550.31 109.37L550.31 112.22ZM578.8 105.08L590.2 105.08L590.2 83.7L587.35 83.7L587.35 89.41L584.51 89.41L584.51 95.1L581.64 95.1L581.64 100.82L578.8 100.82L578.8 105.08ZM95.71 103.66L109.97 103.66L109.97 100.82L107.13 100.82L107.13 92.26L104.26 92.26L104.26 86.55L101.42 86.55L101.42 92.26L98.57 92.26L98.57 100.82L95.71 100.82L95.71 103.66Z" fill="#000000" fill-opacity="1.000000" fill-rule="evenodd"/>
	<rect id="Rectangle 3" y="145.910156" width="93.714287" height="50.000000" fill="#FFFFFF" fill-opacity="1.000000"/>
	<rect id="Rectangle 4" x="93.714355" y="145.910156" width="93.714287" height="50.000000" fill="#FBE54D" fill-opacity="1.000000"/>
	<rect id="Rectangle 5" x="187.428711" y="145.910156" width="93.714287" height="50.000000" fill="#74FADB" fill-opacity="1.000000"/>
	<rect id="Rectangle 6" x="281.142578" y="145.910156" width="93.714287" height="50.000000" fill="#68DC42" fill-opacity="1.000000"/>
	<rect id="Rectangle 7" x="374.857422" y="145.910156" width="93.714287" height="50.000000" fill="#E83CF2" fill-opacity="1.000000"/>
	<rect id="Rectangle 8" x="468.571289" y="145.910156" width="93.714287" height="50.000000" fill="#D52D25" fill-opacity="1.000000"/>
	<rect id="Rectangle 9" x="562.285645" y="145.910156" width="93.714287" height="50.000000" fill="#0732B3" fill-opacity="1.000000"/>
</svg>
